<?xml version="1.0" standalone="no"?>
<!DOCTYPE svg PUBLIC "-//W3C//DTD SVG 20010904//EN"
 "http://www.w3.org/TR/2001/REC-SVG-20010904/DTD/svg10.dtd">
<svg version="1.0" xmlns="http://www.w3.org/2000/svg"
 width="558.000000pt" height="558.000000pt" viewBox="0 0 558.000000 558.000000"
 preserveAspectRatio="xMidYMid meet">
<metadata>
Created by potrace 1.14, written by Peter Selinger 2001-2017
</metadata>
<g transform="translate(0.000000,558.000000) scale(0.100000,-0.100000)"
fill="#000000" stroke="none">
<path d="M2620 5079 c-541 -41 -1047 -276 -1437 -666 -119 -119 -245 -276
-331 -415 -122 -195 -243 -495 -291 -718 -67 -315 -65 -683 5 -993 l16 -70
-33 -26 c-19 -14 -50 -41 -69 -59 -29 -27 -23 -25 33 14 37 25 70 44 73 41 3
-3 26 -65 50 -138 66 -195 182 -418 306 -592 l42 -58 -65 -56 c-195 -170 -354
-356 -393 -458 -4 -11 80 66 186 172 106 105 219 214 251 241 l59 51 75 -85
c236 -264 564 -489 893 -612 283 -106 503 -145 810 -146 219 0 358 16 558 65
656 160 1227 628 1517 1244 149 316 217 620 218 975 0 340 -60 630 -195 936
l-40 91 102 99 c216 209 381 424 503 653 l51 96 -109 -104 c-185 -176 -445
-374 -635 -484 l-45 -26 -90 120 c-464 624 -1229 968 -2015 908z m-177 -334
l32 -7 -32 -9 c-24 -7 -33 -17 -39 -42 l-7 -32 -10 33 c-7 24 -18 34 -41 41
l-31 9 32 7 c27 6 34 13 40 44 l7 36 9 -36 c7 -30 14 -38 40 -44z m-229 -175
c4 -24 11 -30 31 -30 14 0 25 -4 25 -10 0 -5 -8 -10 -18 -10 -23 0 -42 -19
-42 -42 0 -29 -18 -21 -22 10 -2 21 -9 28 -30 30 -16 2 -28 7 -28 12 0 5 12
10 28 12 21 2 28 9 30 31 4 36 18 35 26 -3z m514 -7 c3 -22 -28 -40 -48 -28
-12 7 -13 38 -3 49 15 14 48 1 51 -21z m1285 -144 c20 -1 20 -1 -4 -10 -15 -6
-30 -20 -34 -32 -6 -20 -8 -20 -12 -4 -3 10 -18 24 -35 31 l-30 13 31 6 c24 5
31 12 31 29 1 22 2 22 16 -4 9 -17 23 -28 37 -29z m-1692 -130 c174 -42 455
-206 649 -378 144 -128 315 -313 448 -485 55 -73 66 -81 124 -103 74 -27 101
-29 118 -8 17 20 48 19 54 -2 4 -17 19 -235 17 -258 -1 -5 -13 -10 -27 -10
-22 0 -28 8 -44 52 -10 28 -26 62 -36 75 -19 26 -63 62 -68 56 -2 -1 19 -37
47 -78 96 -143 249 -463 341 -715 6 -15 33 47 103 235 52 140 120 325 152 410
l58 155 -18 48 -17 47 156 -2 155 -3 93 -260 c52 -143 124 -345 161 -450 37
-104 78 -201 91 -217 13 -15 38 -30 58 -34 31 -6 34 -9 34 -41 l0 -35 -67 8
c-86 9 -357 9 -446 0 l-67 -8 0 36 c0 32 3 36 25 36 39 0 92 26 105 50 10 18
5 42 -31 146 l-43 124 -161 0 -161 0 -37 -107 c-21 -60 -37 -122 -37 -140 0
-42 39 -73 91 -73 38 0 39 -1 39 -35 l0 -35 -96 0 -96 0 7 -27 c69 -275 83
-558 36 -736 -71 -270 -260 -413 -519 -393 -46 3 -92 11 -101 16 -11 7 -1 9
34 5 150 -17 224 -8 322 40 241 118 326 465 227 924 -13 64 -27 128 -31 144
-5 26 -8 27 -69 27 l-64 0 0 34 c0 31 2 34 40 40 23 3 43 12 46 20 21 55 -267
640 -415 844 -34 47 -57 52 -116 28 -41 -17 -55 -42 -55 -95 0 -54 33 -90 157
-174 189 -127 253 -194 279 -297 32 -127 -9 -281 -91 -344 -108 -82 -231 -103
-391 -66 -71 16 -102 19 -118 12 -36 -17 -55 -21 -60 -13 -6 10 -36 244 -36
283 0 24 4 28 29 28 25 0 30 -5 36 -32 20 -90 85 -179 150 -204 69 -26 148
-16 188 24 28 28 31 38 32 91 0 79 -11 92 -181 223 -76 59 -154 124 -171 145
-44 51 -73 131 -73 201 0 175 89 281 253 304 l75 11 -51 66 c-335 432 -725
728 -1067 811 -302 72 -523 -69 -584 -372 -19 -90 -21 -298 -5 -415 15 -115
14 -113 65 -113 44 0 44 0 44 -35 0 -28 -4 -35 -19 -35 -29 0 -51 -11 -51 -25
0 -23 80 -262 124 -372 24 -59 68 -157 98 -217 l55 -109 67 184 c37 101 81
220 97 264 99 261 96 249 77 300 l-17 46 156 -3 155 -3 30 -80 c16 -44 38
-107 50 -140 65 -188 171 -484 182 -510 8 -16 17 -41 20 -55 31 -115 80 -180
135 -180 17 0 21 -6 21 -36 l0 -36 -67 8 c-86 9 -357 9 -446 0 l-67 -8 0 36
c0 22 5 36 13 36 27 0 87 22 102 36 23 23 17 69 -24 179 l-36 100 -160 0 -160
0 -37 -100 c-21 -55 -38 -109 -38 -120 0 -11 11 -37 25 -58 22 -32 31 -37 65
-37 39 0 40 -1 40 -35 0 -24 -5 -35 -15 -35 -8 0 -15 -3 -15 -6 0 -12 198
-283 258 -354 198 -230 399 -402 624 -534 76 -44 98 -62 107 -88 15 -42 15
-42 -15 -77 -40 -47 -73 -42 -170 27 -313 220 -667 605 -877 953 l-48 79 -99
0 -100 0 0 35 c0 29 4 35 20 35 25 0 72 23 89 43 10 13 1 38 -50 139 -83 165
-123 260 -170 398 -21 63 -39 113 -39 110 0 -3 -1 -175 -2 -382 l-1 -378 -71
0 -71 1 -65 87 c-36 48 -101 132 -145 188 -44 56 -150 194 -235 307 -85 113
-157 206 -160 206 -7 1 -2 -597 5 -638 9 -49 46 -81 92 -81 36 0 38 -2 38 -32
l0 -33 -162 0 -163 0 0 32 c0 28 3 32 32 35 48 5 75 50 83 141 3 39 5 209 3
377 -3 262 -6 309 -20 336 -18 34 -36 44 -74 44 -20 0 -24 5 -24 33 l0 32 201
0 201 -1 192 -254 c105 -140 208 -277 229 -303 l37 -49 0 232 c0 186 -3 237
-15 260 -18 35 -43 50 -84 50 -29 0 -31 2 -31 36 l0 37 70 -7 c81 -8 78 -13
59 104 -16 100 -14 332 5 421 48 229 159 373 335 435 89 32 240 33 362 3z
m-103 -220 c14 0 14 -2 2 -6 -8 -4 -20 -13 -27 -22 -11 -14 -12 -14 -13 2 0 9
-8 18 -17 18 -17 1 -17 2 0 6 9 2 17 12 17 21 1 15 2 15 11 0 5 -10 18 -18 27
-19z m142 -24 c0 -8 -7 -15 -15 -15 -8 0 -15 7 -15 15 0 8 7 15 15 15 8 0 15
-7 15 -15z m76 -96 c10 -17 -13 -36 -27 -22 -12 12 -4 33 11 33 5 0 12 -5 16
-11z m2376 -596 c6 -7 20 -13 32 -13 16 -1 14 -4 -11 -15 -23 -10 -33 -21 -34
-37 -1 -22 -1 -21 -10 4 -6 15 -22 31 -37 37 -26 9 -26 9 -4 10 17 1 27 10 35
32 9 24 13 27 16 13 2 -11 8 -25 13 -31z m-28 -228 c-6 -5 -14 -17 -17 -25 -4
-10 -6 -7 -6 8 -1 13 -8 22 -18 23 -17 1 -17 2 0 6 9 2 17 11 17 19 0 11 4 10
18 -3 13 -14 15 -20 6 -28z m154 -7 c-6 -18 -28 -21 -28 -4 0 9 7 16 16 16 9
0 14 -5 12 -12z m72 -108 c0 -11 -4 -20 -9 -20 -14 0 -23 18 -16 30 10 17 25
11 25 -10z m-3680 -965 c0 -8 -7 -15 -15 -15 -16 0 -20 12 -8 23 11 12 23 8
23 -8z m130 -30 c0 -8 -7 -15 -15 -15 -8 0 -15 7 -15 15 0 8 7 15 15 15 8 0
15 -7 15 -15z m-251 -56 c-5 -10 -4 -20 3 -27 9 -9 9 -12 1 -12 -7 0 -15 5
-18 10 -4 7 -11 8 -18 1 -9 -7 -12 -2 -12 17 0 23 4 27 27 27 21 0 24 -3 17
-16z m914 -364 l32 -7 -32 -9 c-24 -7 -33 -17 -39 -42 l-7 -32 -10 33 c-7 24
-18 34 -41 41 l-31 9 32 7 c27 6 34 13 40 44 l7 36 9 -36 c7 -30 14 -38 40
-44z m1452 -114 c-5 -2 -12 -7 -15 -11 -3 -3 -16 0 -30 7 -19 10 -21 13 -7 13
10 0 20 6 23 14 5 12 8 12 23 -2 10 -10 12 -19 6 -21z m145 -5 c0 -8 -4 -17
-9 -21 -12 -7 -24 12 -16 25 9 15 25 12 25 -4z m-1730 -31 c0 -8 -7 -15 -15
-15 -8 0 -15 7 -15 15 0 8 7 15 15 15 8 0 15 -7 15 -15z m2210 -46 c0 -11 13
-19 38 -24 l37 -8 -36 -9 c-30 -8 -38 -15 -44 -41 l-7 -32 -9 32 c-7 25 -17
35 -42 42 l-32 9 33 7 c26 6 34 14 39 37 4 21 8 26 14 16 5 -7 9 -20 9 -29z
m-2320 -35 c0 -17 -22 -14 -28 4 -2 7 3 12 12 12 9 0 16 -7 16 -16z m1920 1
c0 -8 -7 -15 -15 -15 -8 0 -15 7 -15 15 0 8 7 15 15 15 8 0 15 -7 15 -15z
m-1926 -148 c8 -6 7 -10 -1 -14 -7 -2 -13 -11 -13 -19 0 -10 -5 -9 -20 6 -19
19 -19 21 -3 40 13 14 19 17 22 8 2 -7 9 -17 15 -21z m1840 -193 c-8 -6 -14
-17 -14 -25 0 -8 -6 -3 -13 11 -7 14 -9 27 -5 28 4 2 8 10 8 18 0 11 4 10 19
-3 15 -15 16 -20 5 -29z m46 -54 c0 -5 -2 -10 -4 -10 -3 0 -8 5 -11 10 -3 6
-1 10 4 10 6 0 11 -4 11 -10z"/>
<path d="M2295 3105 c-5 -16 -35 -101 -67 -189 -32 -87 -56 -161 -54 -163 2
-2 62 -2 133 -1 l131 3 -60 170 c-82 233 -74 216 -83 180z"/>
<path d="M4219 2949 c-35 -101 -65 -187 -67 -191 -2 -4 58 -8 133 -8 127 0
137 1 130 18 -4 9 -31 87 -60 173 -29 87 -57 165 -62 174 -8 13 -25 -27 -74
-166z"/>
</g>
</svg>
